<svg width="48" height="48" viewBox="0 0 48 48" fill="none" xmlns="http://www.w3.org/2000/svg">
<rect width="48" height="48" rx="12" fill="#333333"/>
<mask id="mask0" mask-type="alpha" maskUnits="userSpaceOnUse" x="6" y="15" width="36" height="18">
<path fill-rule="evenodd" clip-rule="evenodd" d="M6 15.75H42V33H6V15.75Z" fill="white"/>
</mask>
<g mask="url(#mask0)">
<path fill-rule="evenodd" clip-rule="evenodd" d="M37.8779 17.0123C34.4304 14.8987 30.0704 15.5196 27.3207 18.275L27.3259 18.2785C26.6481 18.9568 26.0815 19.7484 25.6574 20.6228L25.6547 20.621C25.5765 20.783 25.5148 20.9493 25.4479 21.1139H22.5514C22.4845 20.9493 22.4236 20.783 22.3454 20.621L22.3411 20.6228C21.9178 19.7484 21.3512 18.9568 20.6734 18.2785L20.6786 18.275C17.9298 15.5196 13.5689 14.8987 10.1222 17.0123C7.2596 18.767 5.78048 21.9194 6.02642 25.0536C6.02729 25.0675 6.02903 25.0815 6.03077 25.0954C6.03338 25.145 6.03772 25.1955 6.04293 25.246C6.47138 29.5933 10.1414 33 14.6135 33C19.0682 33 22.74 29.5872 23.1623 25.2321H23.1588C23.1632 25.1886 23.1588 25.1433 23.1623 25.0989H23.1649V25.0135C23.191 24.6783 23.2084 24.3421 23.1945 24.0042H23.1649V23.9764H14.9081V25.0989H21.6919C21.4703 27.2411 20.3023 29.2641 18.3365 30.4693C14.9689 32.5332 10.5811 31.456 8.53363 28.1024C8.02176 27.2629 7.70108 26.3607 7.56203 25.4481C7.51163 25.1032 7.48469 24.7514 7.48469 24.3935C7.48469 20.4381 10.6663 17.2491 14.6135 17.2491C17.8359 17.2491 20.5726 19.3984 21.4494 22.3566H22.965V22.3557H25.0342V22.3566H26.5507C27.4276 19.3984 30.1642 17.2491 33.3849 17.2491C37.333 17.2491 40.5146 20.4381 40.5146 24.3935C40.5146 24.7514 40.4885 25.1032 40.4373 25.4481C40.2982 26.3607 39.9784 27.2629 39.4657 28.1024C37.4191 31.456 33.0312 32.5332 29.6637 30.4693C27.3642 29.0594 26.1449 26.5349 26.27 24.0042H24.8048C24.7874 24.4153 24.7996 24.8263 24.8405 25.2321H24.837C25.2585 29.5872 28.9302 33 33.3849 33C37.8579 33 41.5279 29.5933 41.9555 25.246C41.9607 25.1955 41.965 25.145 41.9694 25.0954C41.9711 25.0815 41.972 25.0675 41.9737 25.0536C42.2188 21.9194 40.7406 18.767 37.8779 17.0123Z" fill="#F9D802"/>
</g>
</svg>
