<svg width="168" height="168" viewBox="0 0 168 168" fill="none" xmlns="http://www.w3.org/2000/svg">
<g filter="url(#filter0_d)">
<path d="M84 144C117.137 144 144 117.137 144 84C144 50.8629 117.137 24 84 24C50.8629 24 24 50.8629 24 84C24 117.137 50.8629 144 84 144Z" fill="#FFCC5B"/>
</g>
<path fill-rule="evenodd" clip-rule="evenodd" d="M84 24C50.8629 24 24 50.8629 24 84C24 117.137 50.8629 144 84 144V24Z" fill="#FDBC4B"/>
<path d="M83.9992 126.824C60.3817 126.824 41.1699 107.607 41.1699 83.995C41.1699 60.3826 60.3817 41.1709 83.9992 41.1709C107.617 41.1709 126.828 60.3878 126.828 84.0001C126.828 107.612 107.617 126.824 83.9992 126.824Z" fill="#FFE28D"/>
<path fill-rule="evenodd" clip-rule="evenodd" d="M84 41.1712C83.9431 41.171 83.8862 41.1709 83.8293 41.1709C60.2117 41.1709 41 60.3826 41 83.995C41 107.607 60.2117 126.824 83.8293 126.824C83.8862 126.824 83.9431 126.824 84 126.824V41.1712Z" fill="#FFDB70"/>
<path fill-rule="evenodd" clip-rule="evenodd" d="M111.756 69.6879C104.861 65.5221 96.1408 66.7459 90.6414 72.1767L90.6519 72.1836C89.2961 73.5207 88.1629 75.0809 87.3147 76.8042L87.3095 76.8008C87.1531 77.12 87.0297 77.4479 86.8958 77.7723H81.1028C80.9689 77.4479 80.8473 77.12 80.6908 76.8008L80.6821 76.8042C79.8357 75.0809 78.7024 73.5207 77.3467 72.1836L77.3572 72.1767C71.8596 66.7459 63.1378 65.5221 56.2445 69.6879C50.5192 73.1465 47.561 79.36 48.0528 85.5375C48.0546 85.5649 48.0581 85.5924 48.0615 85.6198C48.0668 85.7177 48.0754 85.8172 48.0859 85.9168C48.9428 94.4852 56.2827 101.2 65.227 101.2C74.1365 101.2 81.4799 94.4732 82.3246 85.8893H82.3177C82.3264 85.8035 82.3177 85.7142 82.3246 85.6267H82.3298V85.4585C82.382 84.7977 82.4168 84.1351 82.3889 83.4691H82.3298V83.4142H65.8162V85.6267H79.3838C78.9406 89.8491 76.6046 93.8364 72.673 96.212C65.9379 100.28 57.1622 98.1567 53.0673 91.5467C52.0435 89.8921 51.4022 88.1138 51.1241 86.315C51.0233 85.6353 50.9694 84.9419 50.9694 84.2364C50.9694 76.4403 57.3325 70.1547 65.227 70.1547C71.6718 70.1547 77.1451 74.3909 78.8988 80.2216H81.9301V80.2199H86.0685V80.2216H89.1015C90.8552 74.3909 96.3285 70.1547 102.77 70.1547C110.666 70.1547 117.029 76.4403 117.029 84.2364C117.029 84.9419 116.977 85.6353 116.875 86.315C116.596 88.1138 115.957 89.8921 114.931 91.5467C110.838 98.1567 102.062 100.28 95.3273 96.212C90.7283 93.4331 88.2898 88.4571 88.5401 83.4691H85.6096C85.5749 84.2793 85.5992 85.0895 85.6809 85.8893H85.6739C86.5169 94.4732 93.8604 101.2 102.77 101.2C111.716 101.2 119.056 94.4852 119.911 85.9168C119.921 85.8172 119.93 85.7177 119.939 85.6198C119.942 85.5924 119.944 85.5649 119.947 85.5375C120.438 79.36 117.481 73.1465 111.756 69.6879Z" fill="white"/>
<defs>
<filter id="filter0_d" x="0" y="0" width="168" height="168" filterUnits="userSpaceOnUse" color-interpolation-filters="sRGB">
<feFlood flood-opacity="0" result="BackgroundImageFix"/>
<feColorMatrix in="SourceAlpha" type="matrix" values="0 0 0 0 0 0 0 0 0 0 0 0 0 0 0 0 0 0 127 0"/>
<feOffset/>
<feGaussianBlur stdDeviation="12"/>
<feColorMatrix type="matrix" values="0 0 0 0 0.976471 0 0 0 0 0.847059 0 0 0 0 0.00784314 0 0 0 0.24 0"/>
<feBlend mode="normal" in2="BackgroundImageFix" result="effect1_dropShadow"/>
<feBlend mode="normal" in="SourceGraphic" in2="effect1_dropShadow" result="shape"/>
</filter>
</defs>
</svg>
