<svg width="256" height="256" viewBox="0 0 256 256" fill="none" xmlns="http://www.w3.org/2000/svg">
<g opacity="0.38">
<circle cx="8" cy="8" r="8" fill="#F9D802"/>
<circle cx="56" cy="8" r="8" fill="#F9D802"/>
<circle cx="104" cy="8" r="8" fill="#F9D802"/>
<circle cx="152" cy="8" r="8" fill="#F9D802"/>
<circle cx="200" cy="8" r="8" fill="#F9D802"/>
<circle cx="248" cy="8" r="8" fill="#F9D802"/>
<circle cx="8" cy="56" r="8" fill="#F9D802"/>
<circle cx="56" cy="56" r="8" fill="#F9D802"/>
<circle cx="104" cy="56" r="8" fill="#F9D802"/>
<circle cx="152" cy="56" r="8" fill="#F9D802"/>
<circle cx="200" cy="56" r="8" fill="#F9D802"/>
<circle cx="248" cy="56" r="8" fill="#F9D802"/>
<circle cx="8" cy="104" r="8" fill="#F9D802"/>
<circle cx="56" cy="104" r="8" fill="#F9D802"/>
<circle cx="104" cy="104" r="8" fill="#F9D802"/>
<circle cx="152" cy="104" r="8" fill="#F9D802"/>
<circle cx="200" cy="104" r="8" fill="#F9D802"/>
<circle cx="248" cy="104" r="8" fill="#F9D802"/>
<circle cx="8" cy="152" r="8" fill="#F9D802"/>
<circle cx="56" cy="152" r="8" fill="#F9D802"/>
<circle cx="104" cy="152" r="8" fill="#F9D802"/>
<circle cx="152" cy="152" r="8" fill="#F9D802"/>
<circle cx="200" cy="152" r="8" fill="#F9D802"/>
<circle cx="248" cy="152" r="8" fill="#F9D802"/>
<circle cx="8" cy="200" r="8" fill="#F9D802"/>
<circle cx="56" cy="200" r="8" fill="#F9D802"/>
<circle cx="104" cy="200" r="8" fill="#F9D802"/>
<circle cx="152" cy="200" r="8" fill="#F9D802"/>
<circle cx="200" cy="200" r="8" fill="#F9D802"/>
<circle cx="248" cy="200" r="8" fill="#F9D802"/>
<circle cx="8" cy="248" r="8" fill="#F9D802"/>
<circle cx="56" cy="248" r="8" fill="#F9D802"/>
<circle cx="104" cy="248" r="8" fill="#F9D802"/>
<circle cx="152" cy="248" r="8" fill="#F9D802"/>
<circle cx="200" cy="248" r="8" fill="#F9D802"/>
<circle cx="248" cy="248" r="8" fill="#F9D802"/>
</g>
</svg>
