<svg width="109" height="34" viewBox="0 0 109 34" fill="none" xmlns="http://www.w3.org/2000/svg">
<path d="M61.434 26.39C59.9433 26.39 58.6693 25.9913 57.612 25.194C57.3867 25.0033 57.2567 24.8213 57.222 24.648C57.0313 24.0933 56.9187 23.062 56.884 21.554C56.884 21.4327 56.9273 21.346 57.014 21.294C57.118 21.2247 57.248 21.19 57.404 21.19C57.6467 21.19 57.8027 21.294 57.872 21.502C58.2187 22.7673 58.7387 23.738 59.432 24.414C60.1427 25.09 60.9313 25.428 61.798 25.428C62.6647 25.428 63.358 25.1507 63.878 24.596C64.4153 24.0413 64.684 23.3393 64.684 22.49C64.684 21.866 64.5713 21.346 64.346 20.93C64.138 20.4967 63.8433 20.1327 63.462 19.838C63.0807 19.526 62.5087 19.1447 61.746 18.694C60.706 18.07 59.9173 17.5673 59.38 17.186C58.86 16.8047 58.4007 16.3193 58.002 15.73C57.6033 15.1233 57.404 14.404 57.404 13.572C57.404 12.6533 57.6293 11.83 58.08 11.102C58.5307 10.3567 59.1807 9.776 60.03 9.36C60.8967 8.944 61.9107 8.736 63.072 8.736C64.0773 8.736 65.0567 8.93533 66.01 9.334C66.3047 9.45533 66.504 9.68933 66.608 10.036C66.9027 11.2147 67.05 12.1333 67.05 12.792C67.05 12.8787 67.0067 12.948 66.92 13C66.8507 13.052 66.7553 13.078 66.634 13.078C66.478 13.078 66.3307 13.0433 66.192 12.974C66.0533 12.9047 65.9667 12.818 65.932 12.714C65.5853 11.726 65.1433 10.9893 64.606 10.504C64.086 10.0013 63.4533 9.75 62.708 9.75C61.8587 9.75 61.174 9.97533 60.654 10.426C60.1513 10.8767 59.9 11.57 59.9 12.506C59.9 13.1473 60.186 13.728 60.758 14.248C61.33 14.7507 62.2487 15.3833 63.514 16.146C64.7793 16.926 65.724 17.6887 66.348 18.434C66.972 19.162 67.284 20.098 67.284 21.242C67.284 22.854 66.7553 24.1193 65.698 25.038C64.6407 25.9393 63.2193 26.39 61.434 26.39ZM69.3278 26.078C68.9812 26.078 68.8078 25.974 68.8078 25.766C68.8078 25.662 68.8512 25.5753 68.9378 25.506C69.0245 25.4367 69.1805 25.3673 69.4058 25.298C69.7525 25.194 70.0125 25.0813 70.1858 24.96C70.3765 24.8213 70.4718 24.5873 70.4718 24.258V11.44C70.4718 10.92 70.3938 10.4953 70.2378 10.166C70.0818 9.83667 69.7958 9.63733 69.3798 9.568C69.2238 9.53333 69.1458 9.40333 69.1458 9.178C69.1458 9.00467 69.2152 8.892 69.3538 8.84C69.7872 8.736 70.3158 8.57133 70.9398 8.346C71.5812 8.12067 72.1445 7.91267 72.6298 7.722C72.7338 7.68733 72.8118 7.67 72.8638 7.67C73.0025 7.67 73.0718 7.748 73.0718 7.904C73.0718 7.99067 73.0372 8.242 72.9678 8.658C72.8985 9.05667 72.8638 9.776 72.8638 10.816V15.86C72.8638 16.2587 72.9158 16.5533 73.0198 16.744C73.6265 16.276 74.2418 15.886 74.8658 15.574C75.5072 15.2447 76.1918 15.08 76.9198 15.08C77.8038 15.08 78.5318 15.418 79.1038 16.094C79.6932 16.7527 79.9878 17.6107 79.9878 18.668V24.206C79.9878 24.518 80.0745 24.752 80.2478 24.908C80.4385 25.064 80.6985 25.194 81.0278 25.298C81.2358 25.3673 81.3832 25.4367 81.4698 25.506C81.5565 25.5753 81.5998 25.662 81.5998 25.766C81.5998 25.974 81.4178 26.078 81.0538 26.078C80.5685 26.078 80.1698 26.052 79.8578 26C79.4765 25.9653 79.1298 25.948 78.8178 25.948C78.5058 25.948 78.1592 25.9653 77.7778 26C77.5005 26.052 77.1105 26.078 76.6078 26.078C76.2438 26.078 76.0618 25.974 76.0618 25.766C76.0618 25.6447 76.1052 25.558 76.1918 25.506C76.2785 25.4367 76.4258 25.3673 76.6338 25.298C76.9458 25.194 77.1885 25.064 77.3618 24.908C77.5352 24.752 77.6218 24.5093 77.6218 24.18V18.928C77.6218 18.3387 77.3878 17.8273 76.9198 17.394C76.4692 16.9433 75.9838 16.718 75.4638 16.718C75.1172 16.718 74.7532 16.77 74.3718 16.874C73.9905 16.9607 73.6785 17.0993 73.4358 17.29C73.2105 17.4633 73.0545 17.654 72.9678 17.862C72.8985 18.07 72.8638 18.3907 72.8638 18.824V24.258C72.8812 24.57 72.9678 24.7953 73.1238 24.934C73.2798 25.0727 73.5138 25.194 73.8258 25.298C74.2072 25.4193 74.3978 25.5753 74.3978 25.766C74.3978 25.974 74.2245 26.078 73.8778 26.078C73.3925 26.078 72.9938 26.052 72.6818 26C72.2658 25.9653 71.9192 25.948 71.6418 25.948C71.3472 25.948 70.9918 25.9653 70.5758 26C70.2118 26.052 69.7958 26.078 69.3278 26.078ZM88.2623 26.364C87.2743 26.364 86.373 26.1387 85.5583 25.688C84.761 25.2373 84.1283 24.6047 83.6603 23.79C83.1923 22.9753 82.9583 22.0653 82.9583 21.06C82.9583 20.0547 83.2183 19.0927 83.7383 18.174C84.2583 17.238 84.969 16.484 85.8703 15.912C86.7717 15.34 87.751 15.054 88.8083 15.054C89.8137 15.054 90.7323 15.2967 91.5643 15.782C92.4137 16.2673 93.081 16.9173 93.5663 17.732C94.0517 18.5467 94.2943 19.422 94.2943 20.358C94.2943 21.4327 94.0603 22.4293 93.5923 23.348C93.1417 24.2667 92.457 25.0033 91.5383 25.558C90.637 26.0953 89.545 26.364 88.2623 26.364ZM88.8083 25.454C89.883 25.454 90.6457 25.0467 91.0963 24.232C91.4603 23.556 91.6423 22.4727 91.6423 20.982C91.6423 20.1153 91.5037 19.3007 91.2263 18.538C90.949 17.7753 90.559 17.16 90.0563 16.692C89.571 16.224 89.0077 15.99 88.3663 15.99C87.9503 15.99 87.5863 16.0593 87.2743 16.198C86.9623 16.3193 86.6763 16.536 86.4163 16.848C86.1217 17.2293 85.9137 17.7233 85.7923 18.33C85.671 18.9193 85.6103 19.63 85.6103 20.462C85.6103 21.3113 85.749 22.1173 86.0263 22.88C86.3037 23.6427 86.685 24.2667 87.1703 24.752C87.673 25.22 88.219 25.454 88.8083 25.454ZM96.1156 33.202C95.9942 33.202 95.8729 33.176 95.7516 33.124C95.6302 33.072 95.5696 33.0027 95.5696 32.916C95.5696 32.7253 95.7689 32.5607 96.1676 32.422C96.5489 32.3007 96.8176 32.1793 96.9736 32.058C97.1469 31.9367 97.2336 31.7287 97.2336 31.434V18.512C97.2336 18.2 97.1296 17.8533 96.9216 17.472C96.7136 17.0733 96.4362 16.8393 96.0896 16.77C95.9162 16.718 95.8296 16.588 95.8296 16.38C95.8296 16.172 95.9076 16.0507 96.0636 16.016C97.0342 15.7907 98.1176 15.418 99.3136 14.898C99.3482 14.8807 99.3742 14.8633 99.3916 14.846C99.4262 14.8287 99.4696 14.82 99.5216 14.82C99.5736 14.82 99.6169 14.8547 99.6516 14.924C99.6862 14.976 99.7036 15.028 99.7036 15.08L99.6516 15.73C99.5996 16.042 99.5736 16.3453 99.5736 16.64C99.5736 16.7787 99.5822 16.8567 99.5996 16.874C99.7902 16.6833 100.12 16.4493 100.588 16.172C101.056 15.8947 101.576 15.652 102.148 15.444C102.737 15.236 103.283 15.132 103.786 15.132C104.652 15.132 105.406 15.3747 106.048 15.86C106.706 16.328 107.209 16.9433 107.556 17.706C107.92 18.4687 108.102 19.266 108.102 20.098C108.102 21.138 107.833 22.1433 107.296 23.114C106.758 24.0847 106.039 24.8733 105.138 25.48C104.236 26.0867 103.248 26.39 102.174 26.39C101.81 26.39 101.376 26.312 100.874 26.156C100.371 26.0173 99.9896 25.8527 99.7296 25.662C99.6949 25.662 99.6689 25.792 99.6516 26.052C99.6342 26.3293 99.6256 26.546 99.6256 26.702V31.356C99.6256 31.6507 99.7296 31.8587 99.9376 31.98C100.146 32.1187 100.371 32.2227 100.614 32.292C100.856 32.3787 101.012 32.4307 101.082 32.448C101.272 32.5173 101.42 32.578 101.524 32.63C101.628 32.6993 101.68 32.7947 101.68 32.916C101.68 33.0027 101.619 33.072 101.498 33.124C101.394 33.176 101.272 33.202 101.134 33.202C100.631 33.202 100.163 33.176 99.7296 33.124C99.1749 33.0893 98.7502 33.072 98.4556 33.072C98.1436 33.072 97.7796 33.0893 97.3636 33.124C96.9996 33.176 96.5836 33.202 96.1156 33.202ZM102.408 25.454C102.772 25.454 103.188 25.3067 103.656 25.012C104.141 24.7 104.557 24.2147 104.904 23.556C105.268 22.88 105.45 22.022 105.45 20.982C105.45 19.266 105.112 18.096 104.436 17.472C103.76 16.8307 103.04 16.51 102.278 16.51C101.914 16.51 101.524 16.588 101.108 16.744C100.709 16.9 100.371 17.082 100.094 17.29C99.8162 17.498 99.6776 17.6713 99.6776 17.81L99.6516 20.462C99.6342 20.878 99.6256 21.346 99.6256 21.866C99.6256 22.4553 99.7556 23.0273 100.016 23.582C100.293 24.1367 100.648 24.5873 101.082 24.934C101.515 25.2807 101.957 25.454 102.408 25.454Z" fill="#333333"/>
<mask id="mask0" mask-type="alpha" maskUnits="userSpaceOnUse" x="0" y="6" width="48" height="23">
<path fill-rule="evenodd" clip-rule="evenodd" d="M0 6H48V29H0V6Z" fill="white"/>
</mask>
<g mask="url(#mask0)">
<path fill-rule="evenodd" clip-rule="evenodd" d="M42.5039 7.683C37.9072 4.86496 32.0938 5.69284 28.4276 9.36662L28.4346 9.37127C27.5308 10.2758 26.7753 11.3312 26.2098 12.497L26.2063 12.4947C26.102 12.7106 26.0198 12.9324 25.9306 13.1519H22.0685C21.9793 12.9324 21.8982 12.7106 21.7939 12.4947L21.7881 12.497C21.2238 11.3312 20.4683 10.2758 19.5645 9.37127L19.5714 9.36662C15.9064 5.69284 10.0919 4.86496 5.49633 7.683C1.67947 10.0227 -0.292691 14.2259 0.0352303 18.4048C0.036389 18.4234 0.0387065 18.4419 0.041024 18.4605C0.0445002 18.5267 0.0502938 18.594 0.0572462 18.6614C0.628501 24.4577 5.52182 29 11.4847 29C17.4243 29 22.3199 24.4496 22.8831 18.6428H22.8785C22.8843 18.5848 22.8785 18.5244 22.8831 18.4652H22.8866V18.3514C22.9213 17.9043 22.9445 17.4561 22.926 17.0056H22.8866V16.9685H11.8775V18.4652H20.9225C20.627 21.3215 19.0697 24.0188 16.4487 25.6258C11.9586 28.3776 6.10814 26.9413 3.37817 22.4699C2.69568 21.3505 2.26811 20.1476 2.08271 18.9308C2.0155 18.471 1.97958 18.0019 1.97958 17.5247C1.97958 12.2508 6.2217 7.99882 11.4847 7.99882C15.7812 7.99882 19.4301 10.8645 20.5992 14.8088H22.6201V14.8076H25.379V14.8088H27.401C28.5701 10.8645 32.219 7.99882 36.5132 7.99882C41.7774 7.99882 46.0195 12.2508 46.0195 17.5247C46.0195 18.0019 45.9847 18.471 45.9163 18.9308C45.7309 20.1476 45.3045 21.3505 44.6209 22.4699C41.8921 26.9413 36.0416 28.3776 31.5516 25.6258C28.4856 23.7459 26.8599 20.3798 27.0267 17.0056H25.0731C25.0499 17.5537 25.0661 18.1017 25.1206 18.6428H25.116C25.6779 24.4496 30.5736 29 36.5132 29C42.4772 29 47.3706 24.4577 47.9407 18.6614C47.9476 18.594 47.9534 18.5267 47.9592 18.4605C47.9615 18.4419 47.9627 18.4234 47.965 18.4048C48.2917 14.2259 46.3207 10.0227 42.5039 7.683Z" fill="#F9D802"/>
</g>
</svg>
